<?xml version="1.0" encoding="UTF-8"?>
<svg width="48px" height="48px" viewBox="0 0 48 48" version="1.1" xmlns="http://www.w3.org/2000/svg" xmlns:xlink="http://www.w3.org/1999/xlink">
    <title>search</title>
    <g id="search" stroke="none" stroke-width="1" fill="none" fill-rule="evenodd">
        <path d="M46.9222111,40.6100532 L35.4415355,29.1282794 C37.2312926,26.1904328 38.1753503,22.8154716 38.169677,19.375304 C38.169677,8.99339838 29.1741014,2.45864982e-07 18.7931889,2.45864982e-07 C13.8086784,-0.000805553465 9.02808909,1.97911597 5.50350787,5.50403437 C1.97892665,9.02895277 -0.000805476409,13.8099994 2.45841445e-07,18.7949867 C2.45841445e-07,29.173854 8.99557612,38.1702902 19.3734506,38.1702902 C22.6999382,38.1732741 25.9669069,37.288014 28.8368812,35.6059565 L40.3783172,47.1545732 C41.5083666,48.2818089 43.337442,48.2818089 44.4674914,47.1545732 L47.3323437,44.2894468 C48.4594489,43.1622337 48.0493163,41.7372663 46.9222111,40.6100532 Z M5.78438919,18.7949867 C5.78358369,15.3439822 7.15379393,12.034046 9.59350439,9.59353236 C12.0332149,7.15301869 15.3425144,5.78190461 18.7931889,5.78190461 C25.9811429,5.78190461 32.385288,12.183624 32.385288,19.375304 C32.3836109,26.5615359 26.5589951,32.3867089 19.3734506,32.3883861 C12.1854966,32.3853478 5.78438919,25.9805901 5.78438919,18.7949867 L5.78438919,18.7949867 Z" id="Shape" fill="#FFFFFF" fill-rule="nonzero"></path>
    </g>
</svg>